<svg width="50" height="36" viewBox="0 0 50 36" fill="none" xmlns="http://www.w3.org/2000/svg">
<path fill-rule="evenodd" clip-rule="evenodd" d="M7.84339 1.08732C8.41745 0.281523 9.51626 0.0267429 10.3959 0.479658C34.3042 12.7901 40.1855 20.3069 44.4008 27.2848V12.0001C44.4008 10.8956 45.2962 10.0001 46.4008 10.0001H47.6008C48.7054 10.0001 49.6008 10.8956 49.6008 12.0001V33.6001C49.6008 34.7047 48.7054 35.6001 47.6008 35.6001H46.4008C46.3942 35.6001 46.3876 35.6001 46.3811 35.6H26.0007C24.8961 35.6 24.0007 34.7046 24.0007 33.6V32.4C24.0007 31.2955 24.8961 30.4 26.0007 30.4H39.896C37.8411 27.772 33.8968 24.0607 26.5007 20.4997C18.3117 16.5568 7.601 15.2231 2.0105 14.7797C0.409062 14.6527 -0.49554 12.7926 0.436575 11.4842L7.84339 1.08732Z" fill="url(#paint0_linear_1580_123)"/>
<defs>
<linearGradient id="paint0_linear_1580_123" x1="13" y1="-4" x2="51.6079" y2="8.43888" gradientUnits="userSpaceOnUse">
<stop stop-color="#57BF9C"/>
<stop offset="1" stop-color="#75D5E3"/>
</linearGradient>
</defs>
</svg>
